<?xml version="1.0" standalone="no"?>
<!DOCTYPE svg PUBLIC "-//W3C//DTD SVG 20010904//EN"
 "http://www.w3.org/TR/2001/REC-SVG-20010904/DTD/svg10.dtd">
<svg version="1.0" xmlns="http://www.w3.org/2000/svg"
 width="656.000000pt" height="656.000000pt" viewBox="0 0 656.000000 656.000000"
 preserveAspectRatio="xMidYMid meet">
<metadata>
Created by potrace 1.11, written by Peter Selinger 2001-2013
</metadata>
<g transform="translate(0.000000,656.000000) scale(0.100000,-0.100000)"
fill="#000000" stroke="none">
<path d="M2973 6179 c-242 -18 -470 -65 -708 -144 -1070 -356 -1841 -1272
-2017 -2396 -19 -125 -22 -182 -22 -439 0 -332 13 -450 78 -715 207 -837 755
-1533 1521 -1936 760 -400 1685 -447 2485 -127 852 340 1495 1044 1763 1928
134 442 159 976 67 1433 -146 722 -554 1368 -1141 1807 -586 438 -1299 645
-2026 589z m549 -133 c852 -133 1590 -780 1931 -1696 140 -376 200 -717 201
-1145 0 -327 -25 -544 -99 -829 -231 -898 -814 -1599 -1578 -1900 -257 -101
-475 -141 -772 -141 -274 1 -422 24 -675 107 -631 207 -1187 738 -1496 1429
-470 1051 -335 2336 339 3232 409 543 1000 891 1624 957 118 12 405 4 525 -14z"/>
<path d="M2451 5069 l-204 -210 26 -26 c31 -31 13 -43 230 150 85 75 158 137
161 137 4 0 84 -69 177 -152 94 -84 176 -154 183 -156 6 -1 23 9 36 23 l24 25
-209 210 c-115 116 -212 210 -215 210 -3 -1 -97 -95 -209 -211z"/>
<path d="M1708 4442 c-13 -10 -18 -23 -16 -45 l3 -32 118 -8 c135 -9 167 -18
167 -47 0 -37 -451 -1825 -466 -1848 -24 -36 -73 -51 -186 -58 -136 -7 -145
-9 -152 -38 -15 -58 -34 -56 450 -56 l444 0 12 26 c22 49 4 58 -124 65 -142 8
-158 15 -158 72 1 23 49 236 108 472 l108 430 470 3 c258 1 474 0 480 -2 13
-5 -195 -856 -222 -908 -23 -44 -71 -59 -206 -66 -128 -5 -142 -11 -136 -59
l3 -28 439 -3 c325 -2 442 1 453 10 8 6 13 24 11 42 l-3 31 -118 6 c-123 7
-167 22 -167 57 0 9 50 221 112 470 l113 454 39 -5 c55 -8 86 -34 118 -97 31
-61 48 -173 48 -307 0 -226 74 -456 191 -592 92 -106 244 -193 402 -232 l97
-23 0 -122 c0 -181 -11 -190 -257 -201 l-143 -6 0 -44 0 -43 535 0 535 0 0 43
0 44 -147 6 c-251 11 -257 15 -261 196 l-4 127 84 18 c319 68 515 254 593 561
19 75 28 144 35 280 5 99 14 198 21 220 28 98 77 156 147 175 39 10 43 14 40
38 l-3 27 -118 3 c-135 3 -184 -7 -231 -49 -73 -63 -103 -176 -116 -428 -5
-97 -16 -214 -25 -261 -31 -158 -103 -301 -197 -385 -49 -44 -147 -98 -201
-111 l-27 -6 2 740 c3 698 4 741 21 760 27 30 96 43 250 49 l137 6 0 43 0 44
-535 0 -535 0 0 -43 0 -44 143 -6 c164 -8 208 -18 237 -54 20 -25 20 -35 20
-760 l0 -734 -22 6 c-106 32 -211 113 -280 219 -44 68 -91 206 -108 317 -6 42
-15 157 -20 255 -12 239 -39 328 -116 392 -48 40 -101 52 -227 52 l-105 0 103
412 c64 255 111 421 123 437 30 41 64 52 191 58 66 3 124 9 129 12 13 9 22 54
13 69 -6 10 -101 13 -444 13 -240 0 -441 -2 -446 -5 -15 -9 -23 -57 -11 -70 6
-8 53 -15 127 -20 135 -7 169 -21 159 -64 -16 -77 -197 -806 -202 -814 -3 -4
-219 -8 -480 -8 -437 0 -474 1 -474 17 0 28 189 765 205 801 22 48 67 63 204
69 89 4 119 9 129 21 18 23 15 63 -5 68 -10 3 -206 6 -437 7 -337 2 -422 -1
-438 -11z"/>
</g>
</svg>
