<?xml version="1.0" standalone="no"?>
<!DOCTYPE svg PUBLIC "-//W3C//DTD SVG 20010904//EN"
 "http://www.w3.org/TR/2001/REC-SVG-20010904/DTD/svg10.dtd">
<svg version="1.0" xmlns="http://www.w3.org/2000/svg"
 width="800.000000pt" height="800.000000pt" viewBox="0 0 800.000000 800.000000"
 preserveAspectRatio="xMidYMid meet">
<metadata>
Created by potrace 1.11, written by Peter Selinger 2001-2013
</metadata>
<g transform="translate(0.000000,800.000000) scale(0.100000,-0.100000)"
fill="#000000" stroke="none">
<path d="M3865 7414 c-5 -1 -41 -5 -80 -8 -119 -8 -189 -14 -225 -21 -19 -3
-46 -8 -60 -10 -65 -8 -138 -21 -142 -25 -2 -1 -12 -3 -23 -5 -64 -10 -101
-18 -110 -24 -5 -4 -17 -7 -25 -6 -8 1 -30 -4 -47 -11 -18 -7 -33 -10 -33 -7
0 3 -7 0 -15 -7 -8 -7 -15 -9 -15 -5 0 4 -6 2 -13 -4 -8 -6 -16 -8 -19 -5 -4
3 -19 -1 -36 -10 -16 -8 -32 -12 -35 -9 -4 3 -13 1 -20 -5 -8 -7 -17 -9 -20
-5 -4 3 -7 0 -7 -7 0 -7 -2 -11 -5 -8 -5 5 -137 -37 -190 -61 -11 -5 -36 -16
-55 -24 -19 -8 -53 -23 -75 -33 -22 -9 -42 -18 -45 -19 -20 -6 -126 -62 -128
-67 -2 -5 -10 -8 -18 -8 -7 0 -36 -13 -62 -30 -27 -16 -52 -30 -56 -30 -4 0
-19 -8 -34 -19 -15 -10 -49 -32 -77 -49 -27 -17 -56 -36 -62 -42 -7 -6 -15
-10 -18 -10 -6 1 -16 -6 -125 -85 -134 -97 -145 -106 -265 -210 -96 -84 -249
-236 -325 -324 -30 -35 -60 -69 -65 -75 -6 -6 -35 -42 -65 -81 -30 -38 -58
-71 -62 -73 -5 -2 -8 -8 -8 -14 0 -6 -10 -23 -22 -38 -13 -15 -29 -36 -35 -46
-7 -10 -32 -48 -56 -84 -24 -36 -47 -72 -50 -80 -4 -8 -16 -28 -26 -45 -73
-117 -236 -447 -245 -495 -2 -9 -37 -104 -47 -125 -9 -22 -38 -107 -45 -134
-2 -9 -13 -47 -24 -86 -22 -76 -69 -274 -74 -315 -2 -14 -6 -39 -10 -56 -6
-33 -13 -83 -22 -154 -3 -25 -7 -61 -9 -80 -7 -55 -18 -278 -18 -355 0 -84 13
-332 18 -360 2 -11 7 -47 11 -80 3 -33 8 -71 10 -85 2 -14 6 -40 9 -58 2 -18
6 -41 9 -50 3 -9 8 -37 11 -62 4 -25 11 -50 16 -56 5 -6 7 -13 4 -15 -3 -4 18
-98 39 -174 1 -5 8 -30 15 -55 6 -25 15 -54 20 -65 13 -32 32 -88 36 -107 2
-9 9 -27 16 -40 7 -13 12 -25 12 -28 -1 -3 5 -20 13 -39 8 -18 14 -37 14 -42
0 -5 4 -17 10 -27 5 -9 23 -48 40 -87 41 -93 148 -303 171 -337 11 -14 19 -30
19 -35 0 -5 8 -18 17 -29 17 -19 24 -31 56 -86 6 -13 14 -25 17 -28 3 -3 25
-34 49 -69 24 -36 47 -70 52 -75 161 -207 228 -284 360 -415 172 -172 376
-337 548 -446 9 -6 42 -27 73 -48 31 -20 61 -37 67 -37 5 0 11 -3 13 -7 9 -23
455 -241 523 -258 12 -2 42 -14 70 -25 11 -5 38 -14 60 -21 22 -6 49 -16 60
-20 29 -12 220 -63 316 -83 13 -3 42 -10 64 -15 22 -5 60 -12 85 -16 25 -4 52
-8 60 -9 8 -2 40 -6 70 -11 30 -4 62 -9 70 -10 147 -27 645 -24 845 5 39 6 88
12 110 15 38 4 109 17 165 30 14 3 45 10 70 15 83 17 212 52 255 70 17 6 30
11 30 10 0 -1 7 1 15 4 8 2 40 12 70 22 49 15 159 57 230 87 14 6 27 11 30 12
11 3 206 97 220 106 8 5 27 14 43 20 15 6 27 15 27 19 0 4 10 10 23 14 12 3
53 26 91 51 38 25 71 45 74 45 2 0 27 16 53 35 27 19 51 35 54 35 3 0 11 5 18
10 15 13 76 58 113 85 47 34 196 157 253 210 133 123 307 309 376 400 16 22
34 45 40 52 5 7 15 19 22 27 10 11 86 121 163 236 24 35 138 230 135 230 -2 0
12 27 31 61 18 33 34 63 34 65 0 2 15 36 34 76 65 140 170 428 190 519 3 13
15 62 27 109 19 80 23 97 33 153 2 12 7 33 10 47 4 14 9 41 11 60 2 19 7 53
10 75 25 165 45 478 32 491 -4 4 -2 14 3 24 5 10 8 19 5 21 -2 2 -6 65 -10
139 -3 74 -8 151 -10 170 -9 86 -15 134 -24 188 -6 31 -13 75 -17 97 -9 63
-12 80 -14 83 -3 2 -4 5 -13 52 -18 89 -46 200 -63 250 -9 25 -17 52 -19 60
-2 8 -4 16 -5 18 -2 1 -3 6 -4 11 0 5 -4 13 -8 17 -5 4 -8 16 -8 26 0 10 -4
26 -9 36 -5 9 -24 55 -42 102 -57 150 -166 378 -224 470 -14 22 -25 44 -25 50
0 5 -4 10 -10 10 -5 0 -10 5 -10 11 0 23 -220 337 -305 434 -15 17 -45 52 -68
79 -154 181 -497 484 -648 573 -16 10 -29 21 -29 25 0 4 -4 8 -9 8 -5 0 -37
18 -70 40 -33 22 -64 40 -70 40 -5 0 -11 3 -13 8 -1 4 -19 16 -38 26 -19 11
-53 29 -75 41 -66 36 -199 102 -215 108 -8 2 -19 6 -25 7 -5 1 -22 11 -37 21
-14 10 -30 19 -35 19 -4 0 -41 14 -81 30 -130 53 -375 130 -495 156 -61 13
-175 36 -202 40 -16 3 -41 7 -55 10 -30 6 -78 12 -145 19 -27 3 -68 8 -90 10
-45 6 -485 14 -500 9z"/>
</g>
</svg>
